<svg width="64" height="64" viewBox="0 0 64 64" fill="none" xmlns="http://www.w3.org/2000/svg">
<path d="M25.95 55.1874C25.1776 55.1872 24.4192 54.9818 23.7522 54.5923C23.0852 54.2028 22.5337 53.6431 22.154 52.9704L19.9715 49.1344C19.665 48.5924 19.1568 48.1933 18.5575 48.0239L14.314 46.8124C13.2663 46.5171 12.3668 45.8408 11.7923 44.9162C11.2178 43.9916 11.0097 42.8856 11.209 41.8154L12.003 37.4739C12.1165 36.8616 11.9839 36.2291 11.634 35.7139L9.16201 32.0589C8.54898 31.1593 8.29463 30.0628 8.44896 28.9851C8.60328 27.9074 9.15512 26.9264 9.99601 26.2349L13.396 23.4199C13.8773 23.0242 14.1829 22.4544 14.246 21.8344L14.7 17.4449C14.9315 15.1999 19.05 13.4999 19.05 13.4999H19.0785L23.4915 13.9999H23.5075C24.0894 13.6734 24.6426 13.2981 25.161 12.8779L28.332 9.80894C29.1115 9.04916 30.1469 8.60834 31.2348 8.57309C32.3227 8.53784 33.3845 8.91071 34.2115 9.61844L37.574 12.4769C38.0475 12.8818 38.6618 13.083 39.283 13.0369L43.683 12.7239C44.7687 12.6424 45.8456 12.9701 46.7019 13.6426C47.5581 14.3152 48.1316 15.2838 48.3095 16.3579L49.048 20.7079C49.1513 21.3224 49.4926 21.8714 49.998 22.2359L53.5715 24.8249C54.455 25.461 55.0687 26.4043 55.2922 27.4697C55.5157 28.535 55.3329 29.6455 54.7795 30.5829L52.55 34.3914C52.2339 34.9281 52.1425 35.5678 52.2955 36.1714L53.37 40.4499C53.6379 41.5051 53.5016 42.6222 52.988 43.582C52.4743 44.5418 51.6205 45.2749 50.594 45.6374L48.917 46.2374C48.7933 46.2816 48.6621 46.3009 48.5309 46.2943C48.3998 46.2877 48.2712 46.2554 48.1525 46.1991C48.0338 46.1428 47.9274 46.0638 47.8393 45.9664C47.7512 45.8689 47.6831 45.7551 47.639 45.6314C47.5949 45.5077 47.5756 45.3766 47.5821 45.2454C47.5887 45.1142 47.6211 44.9856 47.6773 44.8669C47.7336 44.7483 47.8127 44.6418 47.9101 44.5537C48.0075 44.4656 48.1213 44.3976 48.245 44.3534L49.9225 43.7534C50.48 43.5565 50.9437 43.1583 51.2225 42.637C51.5014 42.1157 51.5752 41.5089 51.4295 40.9359L50.357 36.6554C50.076 35.544 50.2445 34.3665 50.826 33.3784L53.057 29.5704C53.3574 29.0613 53.4567 28.4583 53.3353 27.8797C53.214 27.3012 52.8807 26.7889 52.401 26.4434L48.827 23.8534C47.8974 23.1826 47.2698 22.1721 47.0805 21.0414L46.342 16.6914C46.2444 16.1084 45.9327 15.5829 45.4678 15.2178C45.003 14.8526 44.4185 14.6742 43.829 14.7174L39.429 15.0304C38.2849 15.1148 37.1538 14.7445 36.281 13.9999L32.9185 11.1419C32.4693 10.7576 31.8926 10.5551 31.3017 10.5743C30.7108 10.5934 30.1484 10.8328 29.725 11.2454L26.5535 14.3149C25.732 15.1109 23.5095 15.4999 23.5095 15.4999H23.481L19.068 15.9999H19.05C19.05 15.9999 16.8125 16.4334 16.686 17.6499L16.23 22.0394C16.1149 23.1804 15.5544 24.2299 14.67 24.9599L11.27 27.7749C10.8133 28.1505 10.5136 28.6833 10.4298 29.2685C10.346 29.8538 10.4841 30.4493 10.817 30.9379L13.289 34.5939C13.9333 35.5423 14.1776 36.7065 13.969 37.8339L13.177 42.1749C13.0684 42.7561 13.1812 43.357 13.4932 43.8592C13.8052 44.3615 14.2938 44.7288 14.863 44.8889L19.1065 46.0999C20.21 46.4119 21.1457 47.1471 21.71 48.1454L23.892 51.9809C24.1828 52.4957 24.6555 52.8832 25.2173 53.0673C25.7791 53.2514 26.3895 53.2188 26.9285 52.9759L30.9585 51.1759C32.004 50.7058 33.1928 50.6673 34.2665 51.0689L38.4045 52.6044C38.958 52.8119 39.5691 52.8049 40.1178 52.5849C40.6665 52.3649 41.1131 51.9478 41.37 51.4154L43.9035 46.2059C43.9609 46.0877 44.0411 45.982 44.1393 45.8948C44.2376 45.8076 44.3521 45.7406 44.4763 45.6976C44.6005 45.6546 44.7319 45.6365 44.8631 45.6444C44.9942 45.6522 45.1226 45.6858 45.2408 45.7432C45.3589 45.8006 45.4647 45.8807 45.5519 45.979C45.6391 46.0773 45.7061 46.1918 45.7491 46.316C45.7921 46.4402 45.8101 46.5716 45.8023 46.7027C45.7945 46.8339 45.7609 46.9622 45.7035 47.0804L43.1705 52.2899C42.6977 53.2705 41.8752 54.0389 40.8647 54.444C39.8543 54.8491 38.7288 54.8618 37.7095 54.4794L33.5725 52.9439C32.9893 52.7255 32.3434 52.7464 31.7755 53.0019L27.7455 54.8019C27.1809 55.0556 26.569 55.187 25.95 55.1874Z" fill="#B39A72"/>
<path d="M29.642 37.7284C29.4949 37.7285 29.3495 37.6961 29.2163 37.6335C29.0831 37.5709 28.9654 37.4797 28.8715 37.3664L24.739 32.3819C24.6552 32.2808 24.5921 32.1641 24.5534 32.0386C24.5146 31.9132 24.501 31.7813 24.5132 31.6505C24.5255 31.5197 24.5633 31.3926 24.6247 31.2765C24.686 31.1604 24.7696 31.0575 24.8708 30.9736C24.9719 30.8898 25.0885 30.8268 25.214 30.788C25.3395 30.7493 25.4714 30.7356 25.6022 30.7479C25.8663 30.7726 26.1097 30.9012 26.279 31.1054L29.7735 35.3204L38.586 28.0144C38.6869 27.9289 38.8037 27.8642 38.9297 27.8241C39.0558 27.784 39.1885 27.7694 39.3203 27.7809C39.452 27.7925 39.5801 27.8301 39.6973 27.8915C39.8144 27.953 39.9181 28.037 40.0026 28.1388C40.087 28.2406 40.1504 28.3582 40.189 28.4846C40.2277 28.6111 40.2409 28.744 40.2279 28.8756C40.2149 29.0072 40.1759 29.1349 40.1132 29.2513C40.0504 29.3678 39.9652 29.4706 39.8625 29.5539L30.28 37.4999C30.1004 37.648 29.8748 37.7288 29.642 37.7284Z" fill="#B39A72"/>
<path d="M31.75 44.9999C29.1294 44.9999 26.5677 44.2228 24.3887 42.7669C22.2098 41.3109 20.5115 39.2416 19.5086 36.8204C18.5057 34.3993 18.2433 31.7352 18.7546 29.1649C19.2659 26.5947 20.5278 24.2338 22.3808 22.3807C24.2339 20.5277 26.5948 19.2657 29.1651 18.7545C31.7353 18.2432 34.3994 18.5056 36.8206 19.5085C39.2417 20.5113 41.3111 22.2096 42.767 24.3886C44.2229 26.5675 45 29.1293 45 31.7499C44.996 35.2628 43.5988 38.6307 41.1148 41.1147C38.6308 43.5987 35.2629 44.9959 31.75 44.9999ZM31.75 20.4999C29.525 20.4999 27.3499 21.1597 25.4998 22.3959C23.6498 23.632 22.2078 25.389 21.3564 27.4447C20.5049 29.5004 20.2821 31.7624 20.7162 33.9447C21.1503 36.1269 22.2217 38.1315 23.7951 39.7048C25.3684 41.2782 27.373 42.3496 29.5552 42.7837C31.7375 43.2178 33.9995 42.995 36.0552 42.1435C38.1109 41.292 39.8679 39.8501 41.104 38C42.3402 36.15 43 33.9749 43 31.7499C42.9966 28.7673 41.8102 25.9078 39.7012 23.7987C37.5921 21.6897 34.7326 20.5033 31.75 20.4999Z" fill="#B39A72"/>
</svg>
