<svg width="64" height="64" viewBox="0 0 64 64" fill="none" xmlns="http://www.w3.org/2000/svg">
<g clip-path="url(#clip0_21_26)">
<path d="M63 64H1C0.734784 64 0.48043 63.8946 0.292893 63.7071C0.105357 63.5196 0 63.2652 0 63C0 62.7348 0.105357 62.4804 0.292893 62.2929C0.48043 62.1054 0.734784 62 1 62H62V1C62 0.734784 62.1054 0.48043 62.2929 0.292893C62.4804 0.105357 62.7348 0 63 0C63.2652 0 63.5196 0.105357 63.7071 0.292893C63.8946 0.48043 64 0.734784 64 1V63C64 63.2652 63.8946 63.5196 63.7071 63.7071C63.5196 63.8946 63.2652 64 63 64Z" fill="#B39A72"/>
<path d="M19.318 64H8.04547C7.78025 64 7.5259 63.8947 7.33836 63.7071C7.15083 63.5196 7.04547 63.2653 7.04547 63V44.212C7.04547 43.9468 7.15083 43.6925 7.33836 43.5049C7.5259 43.3174 7.78025 43.212 8.04547 43.212H19.318C19.5832 43.212 19.8375 43.3174 20.0251 43.5049C20.2126 43.6925 20.318 43.9468 20.318 44.212V63C20.318 63.2653 20.2126 63.5196 20.0251 63.7071C19.8375 63.8947 19.5832 64 19.318 64ZM9.04547 62H18.318V45.212H9.04547V62Z" fill="#B39A72"/>
<path d="M37.636 64H26.364C26.0988 64 25.8444 63.8946 25.6569 63.7071C25.4694 63.5196 25.364 63.2652 25.364 63V39.516C25.364 39.2508 25.4694 38.9964 25.6569 38.8089C25.8444 38.6214 26.0988 38.516 26.364 38.516H29.383C29.6482 38.516 29.9026 38.6214 30.0901 38.8089C30.2777 38.9964 30.383 39.2508 30.383 39.516C30.383 39.7812 30.2777 40.0356 30.0901 40.2231C29.9026 40.4106 29.6482 40.516 29.383 40.516H27.364V62H36.636V44.55C36.636 44.2848 36.7414 44.0304 36.9289 43.8429C37.1164 43.6553 37.3708 43.55 37.636 43.55C37.9012 43.55 38.1556 43.6553 38.3431 43.8429C38.5307 44.0304 38.636 44.2848 38.636 44.55V63C38.636 63.2652 38.5307 63.5196 38.3431 63.7071C38.1556 63.8946 37.9012 64 37.636 64Z" fill="#B39A72"/>
<path d="M55.9565 64.0001H44.6795C44.4143 64.0001 44.1599 63.8947 43.9724 63.7072C43.7849 63.5196 43.6795 63.2653 43.6795 63.0001V43.6581C43.6795 43.3928 43.7849 43.1385 43.9724 42.951C44.1599 42.7634 44.4143 42.6581 44.6795 42.6581C44.9447 42.6581 45.1991 42.7634 45.3866 42.951C45.5741 43.1385 45.6795 43.3928 45.6795 43.6581V62.0001H54.9565V35.8206H52.0065C51.7413 35.8206 51.4869 35.7152 51.2994 35.5277C51.1119 35.3401 51.0065 35.0858 51.0065 34.8206C51.0065 34.5553 51.1119 34.301 51.2994 34.1134C51.4869 33.9259 51.7413 33.8206 52.0065 33.8206H55.9565C56.2217 33.8206 56.4761 33.9259 56.6636 34.1134C56.8511 34.301 56.9565 34.5553 56.9565 34.8206V63.0001C56.9565 63.2653 56.8511 63.5196 56.6636 63.7072C56.4761 63.8947 56.2217 64.0001 55.9565 64.0001Z" fill="#B39A72"/>
<path d="M1.64699 33.047C1.42686 33.047 1.21289 32.9744 1.03826 32.8404C0.863621 32.7063 0.738083 32.5185 0.681109 32.3058C0.624136 32.0932 0.638911 31.8677 0.723144 31.6644C0.807377 31.461 0.956361 31.2911 1.14699 31.181L41.4195 7.93102C41.5333 7.86432 41.6591 7.82079 41.7898 7.80292C41.9204 7.78505 42.0533 7.79321 42.1808 7.82692C42.3083 7.86063 42.4279 7.91922 42.5327 7.99933C42.6374 8.07944 42.7253 8.17948 42.7913 8.29369C42.8572 8.4079 42.8999 8.53403 42.9169 8.66481C42.9339 8.79559 42.9249 8.92844 42.8903 9.05571C42.8557 9.18298 42.7964 9.30216 42.7156 9.40639C42.6348 9.51062 42.5341 9.59784 42.4195 9.66302L2.14599 32.913C1.99437 33.0009 1.82222 33.0471 1.64699 33.047Z" fill="#B39A72"/>
<path d="M45.3665 14.526C45.2083 14.5261 45.0524 14.4886 44.9115 14.4166C44.7706 14.3447 44.6488 14.2404 44.5561 14.1122C44.4634 13.9841 44.4024 13.8357 44.3781 13.6794C44.3538 13.5231 44.367 13.3633 44.4165 13.213L46.962 5.48902L39 3.83152C38.7419 3.77599 38.5162 3.6206 38.3721 3.39928C38.2281 3.17795 38.1775 2.90865 38.2313 2.65013C38.2851 2.39162 38.439 2.16487 38.6593 2.01938C38.8797 1.87388 39.1486 1.82145 39.4075 1.87352L48.466 3.75952C48.6037 3.78825 48.7338 3.84572 48.8478 3.92816C48.9618 4.01061 49.0571 4.11618 49.1275 4.23798C49.198 4.35977 49.2419 4.49506 49.2564 4.63499C49.271 4.77491 49.2559 4.91634 49.212 5.05002L46.316 13.839C46.2502 14.0389 46.1229 14.2128 45.9525 14.3362C45.782 14.4595 45.5769 14.526 45.3665 14.526Z" fill="#B39A72"/>
<path d="M39.623 45.705C36.9124 45.705 34.2627 44.9013 32.0089 43.3953C29.7551 41.8894 27.9985 39.749 26.9612 37.2447C25.9239 34.7405 25.6525 31.9848 26.1813 29.3263C26.7101 26.6678 28.0154 24.2258 29.9321 22.3092C31.8488 20.3925 34.2908 19.0872 36.9493 18.5584C39.6078 18.0296 42.3634 18.301 44.8677 19.3383C47.3719 20.3756 49.5123 22.1322 51.0183 24.386C52.5242 26.6397 53.328 29.2895 53.328 32C53.3239 35.6336 51.8786 39.1171 49.3093 41.6864C46.74 44.2557 43.2565 45.7009 39.623 45.705ZM39.623 20.295C37.3079 20.295 35.0449 20.9815 33.12 22.2677C31.1951 23.5539 29.6949 25.3819 28.809 27.5207C27.923 29.6595 27.6912 32.013 28.1429 34.2836C28.5945 36.5541 29.7093 38.6398 31.3463 40.2767C32.9833 41.9137 35.0689 43.0285 37.3394 43.4801C39.61 43.9318 41.9635 43.7 44.1023 42.8141C46.2411 41.9281 48.0692 40.4279 49.3553 38.503C50.6415 36.5781 51.328 34.3151 51.328 32C51.3244 28.8968 50.0901 25.9216 47.8957 23.7273C45.7014 21.533 42.7262 20.2986 39.623 20.295Z" fill="#B39A72"/>
<path d="M39.623 42.656C37.5154 42.656 35.4552 42.031 33.7028 40.8601C31.9505 39.6892 30.5847 38.025 29.7781 36.0779C28.9716 34.1307 28.7606 31.9882 29.1717 29.9211C29.5829 27.8541 30.5978 25.9553 32.0881 24.4651C33.5783 22.9748 35.477 21.9599 37.5441 21.5488C39.6112 21.1376 41.7537 21.3486 43.7009 22.1551C45.648 22.9617 47.3122 24.3275 48.4831 26.0798C49.654 27.8322 50.279 29.8924 50.279 32C50.2758 34.8252 49.1521 37.5337 47.1544 39.5314C45.1567 41.5291 42.4482 42.6528 39.623 42.656ZM39.623 23.344C37.911 23.344 36.2374 23.8517 34.814 24.8028C33.3905 25.7539 32.281 27.1058 31.6259 28.6875C30.9707 30.2692 30.7993 32.0096 31.1333 33.6887C31.4673 35.3678 32.2917 36.9102 33.5023 38.1207C34.7128 39.3313 36.2552 40.1557 37.9343 40.4897C39.6134 40.8237 41.3538 40.6523 42.9355 39.9971C44.5172 39.3419 45.8691 38.2325 46.8202 36.809C47.7713 35.3855 48.279 33.712 48.279 32C48.2763 29.7051 47.3635 27.5049 45.7408 25.8822C44.118 24.2595 41.9179 23.3466 39.623 23.344Z" fill="#B39A72"/>
<path d="M39.623 37.62C37.6385 37.62 36.023 36.135 36.023 34.31C36.023 34.0448 36.1284 33.7904 36.3159 33.6029C36.5034 33.4154 36.7578 33.31 37.023 33.31C37.2882 33.31 37.5426 33.4154 37.7301 33.6029C37.9177 33.7904 38.023 34.0448 38.023 34.31C38.023 35.02 38.7555 35.62 39.623 35.62C40.4905 35.62 41.223 35.02 41.223 34.31C41.223 33.6 40.4895 33 39.623 33C37.6385 33 36.023 31.515 36.023 29.69C36.023 27.865 37.6375 26.38 39.623 26.38C41.6085 26.38 43.223 27.865 43.223 29.69C43.223 29.9552 43.1177 30.2096 42.9301 30.3971C42.7426 30.5846 42.4882 30.69 42.223 30.69C41.9578 30.69 41.7034 30.5846 41.5159 30.3971C41.3284 30.2096 41.223 29.9552 41.223 29.69C41.223 28.98 40.491 28.38 39.623 28.38C38.755 28.38 38.023 28.98 38.023 29.69C38.023 30.4 38.7565 31 39.623 31C41.6075 31 43.223 32.485 43.223 34.31C43.223 36.135 41.6075 37.62 39.623 37.62Z" fill="#B39A72"/>
<path d="M39.623 28.3799C39.3578 28.3799 39.1034 28.2746 38.9159 28.0871C38.7283 27.8995 38.623 27.6452 38.623 27.3799V25.0699C38.623 24.8047 38.7283 24.5504 38.9159 24.3628C39.1034 24.1753 39.3578 24.0699 39.623 24.0699C39.8882 24.0699 40.1426 24.1753 40.3301 24.3628C40.5176 24.5504 40.623 24.8047 40.623 25.0699V27.3799C40.623 27.6452 40.5176 27.8995 40.3301 28.0871C40.1426 28.2746 39.8882 28.3799 39.623 28.3799Z" fill="#B39A72"/>
<path d="M39.623 39.93C39.3578 39.93 39.1034 39.8246 38.9159 39.6371C38.7283 39.4496 38.623 39.1952 38.623 38.93V36.62C38.623 36.3548 38.7283 36.1004 38.9159 35.9129C39.1034 35.7254 39.3578 35.62 39.623 35.62C39.8882 35.62 40.1426 35.7254 40.3301 35.9129C40.5176 36.1004 40.623 36.3548 40.623 36.62V38.93C40.623 39.1952 40.5176 39.4496 40.3301 39.6371C40.1426 39.8246 39.8882 39.93 39.623 39.93Z" fill="#B39A72"/>
</g>
<defs>
<clipPath id="clip0_21_26">
<rect width="64" height="64" fill="white"/>
</clipPath>
</defs>
</svg>
