<svg width="64" height="64" viewBox="0 0 64 64" fill="none" xmlns="http://www.w3.org/2000/svg">
<path d="M40.982 46.0905C40.3894 46.0903 39.7994 46.0114 39.2275 45.856L18.0925 40.113C17.7643 40.0196 17.4267 39.9632 17.086 39.945C13.9057 39.7381 10.7391 39.3585 7.6 38.808C1.271 37.7 0 36.6885 0 35.418V20.318C0 19.0475 1.271 18.037 7.6 16.928C10.7397 16.3774 13.9071 15.9978 17.088 15.791C17.4288 15.7723 17.7666 15.716 18.095 15.623L39.2275 9.87751C40.1708 9.62047 41.1591 9.57435 42.1222 9.74243C43.0853 9.91051 43.9996 10.2887 44.8 10.85C45.5453 11.3635 46.1683 12.0347 46.625 12.816C47.0817 13.5974 47.3608 14.4697 47.4425 15.371C47.4592 15.5677 47.4675 15.7655 47.4675 15.9645V39.7715C47.4675 39.9715 47.4592 40.169 47.4425 40.364C47.361 41.2654 47.0819 42.1379 46.6252 42.9193C46.1685 43.7007 45.5454 44.372 44.8 44.8855C43.6811 45.6694 42.3482 46.0901 40.982 46.0905ZM2 35.2065C3.409 36.3565 13.122 37.7735 17.1715 37.947C17.6605 37.9709 18.1453 38.0501 18.6165 38.183L39.75 43.926C40.4101 44.106 41.1017 44.1384 41.7757 44.021C42.4498 43.9035 43.0897 43.6391 43.65 43.2465C44.1575 42.9039 44.582 42.4523 44.8925 41.9246C45.2031 41.3969 45.3919 40.8065 45.445 40.1965C45.457 40.058 45.4635 39.917 45.4635 39.774V15.962C45.4635 15.819 45.457 15.6775 45.445 15.538C45.3919 14.928 45.2032 14.3376 44.8926 13.8099C44.5821 13.2822 44.1575 12.8306 43.65 12.488C43.0898 12.0952 42.4499 11.8307 41.7758 11.7132C41.1017 11.5958 40.4101 11.6283 39.75 11.8085L18.6165 17.55C18.1452 17.6826 17.6605 17.7618 17.1715 17.786C13.122 17.96 3.4085 19.376 2 20.527V35.2065Z" fill="#B39A72"/>
<path d="M15.989 39.3575C15.7238 39.3575 15.4694 39.2521 15.2819 39.0646C15.0944 38.8771 14.989 38.6227 14.989 38.3575V17.3755C14.989 17.1103 15.0944 16.8559 15.2819 16.6684C15.4694 16.4808 15.7238 16.3755 15.989 16.3755C16.2542 16.3755 16.5086 16.4808 16.6961 16.6684C16.8837 16.8559 16.989 17.1103 16.989 17.3755V38.3575C16.989 38.6227 16.8837 38.8771 16.6961 39.0646C16.5086 39.2521 16.2542 39.3575 15.989 39.3575Z" fill="#B39A72"/>
<path d="M14.1565 54.3555C13.9156 54.3552 13.6829 54.2679 13.5012 54.1097C13.3195 53.9515 13.201 53.733 13.1675 53.4945L11.15 39.1105C11.1304 38.9798 11.137 38.8466 11.1692 38.7185C11.2014 38.5904 11.2587 38.47 11.3377 38.3641C11.4167 38.2583 11.5159 38.1691 11.6296 38.1018C11.7433 38.0346 11.8692 37.9905 12 37.9721C12.1308 37.9537 12.2639 37.9615 12.3917 37.9949C12.5195 38.0283 12.6395 38.0866 12.7446 38.1666C12.8497 38.2466 12.9379 38.3467 13.0042 38.4609C13.0704 38.5752 13.1133 38.7015 13.1305 38.8325L15.15 53.2165C15.1868 53.4789 15.118 53.7452 14.9586 53.9568C14.7992 54.1685 14.5623 54.3083 14.3 54.3455C14.2525 54.3524 14.2045 54.3557 14.1565 54.3555Z" fill="#B39A72"/>
<path d="M21.1145 54.3555C20.8736 54.3552 20.6409 54.2679 20.4592 54.1097C20.2775 53.9516 20.159 53.7331 20.1255 53.4945L18.231 40.012C18.1968 39.7506 18.2671 39.4863 18.4268 39.2765C18.5864 39.0667 18.8225 38.9284 19.0835 38.8918C19.3446 38.8551 19.6096 38.9231 19.8208 39.0808C20.0321 39.2385 20.1725 39.4733 20.2115 39.734L22.106 53.2165C22.1428 53.4789 22.074 53.7452 21.9146 53.9569C21.7552 54.1686 21.5184 54.3083 21.256 54.3455C21.2092 54.3523 21.1619 54.3557 21.1145 54.3555Z" fill="#B39A72"/>
<path d="M21.1155 54.3555H14.1575C13.8923 54.3555 13.6379 54.2501 13.4504 54.0626C13.2628 53.875 13.1575 53.6207 13.1575 53.3555C13.1575 53.0903 13.2628 52.8359 13.4504 52.6484C13.6379 52.4608 13.8923 52.3555 14.1575 52.3555H21.1155C21.3807 52.3555 21.635 52.4608 21.8226 52.6484C22.0101 52.8359 22.1155 53.0903 22.1155 53.3555C22.1155 53.6207 22.0101 53.875 21.8226 54.0626C21.635 54.2501 21.3807 54.3555 21.1155 54.3555Z" fill="#B39A72"/>
<path d="M63 28.65H51.9775C51.7123 28.65 51.4579 28.5447 51.2704 28.3571C51.0828 28.1696 50.9775 27.9152 50.9775 27.65C50.9775 27.3848 51.0828 27.1305 51.2704 26.9429C51.4579 26.7554 51.7123 26.65 51.9775 26.65H63C63.2652 26.65 63.5195 26.7554 63.7071 26.9429C63.8946 27.1305 64 27.3848 64 27.65C64 27.9152 63.8946 28.1696 63.7071 28.3571C63.5195 28.5447 63.2652 28.65 63 28.65Z" fill="#B39A72"/>
<path d="M62.2605 41.05C62.0849 41.0501 61.9124 41.0037 61.7605 40.9155L52.2155 35.4045C52.1009 35.3393 52.0003 35.2521 51.9195 35.1478C51.8387 35.0436 51.7793 34.9244 51.7447 34.7972C51.7102 34.6699 51.7011 34.537 51.7181 34.4063C51.7351 34.2755 51.7778 34.1494 51.8438 34.0351C51.9097 33.9209 51.9976 33.8209 52.1023 33.7408C52.2071 33.6607 52.3267 33.6021 52.4542 33.5684C52.5817 33.5347 52.7146 33.5265 52.8452 33.5444C52.9759 33.5622 53.1018 33.6058 53.2155 33.6725L62.7605 39.184C62.9512 39.294 63.1001 39.4639 63.1844 39.6673C63.2686 39.8707 63.2834 40.0962 63.2264 40.3088C63.1694 40.5214 63.0439 40.7093 62.8693 40.8433C62.6946 40.9773 62.4806 41.05 62.2605 41.05Z" fill="#B39A72"/>
<path d="M52.7175 21.763C52.4974 21.763 52.2834 21.6903 52.1088 21.5563C51.9341 21.4223 51.8086 21.2344 51.7516 21.0218C51.6946 20.8092 51.7094 20.5837 51.7936 20.3803C51.8779 20.177 52.0269 20.0071 52.2175 19.897L61.7625 14.3855C61.8763 14.3188 62.0021 14.2753 62.1328 14.2574C62.2634 14.2395 62.3963 14.2477 62.5238 14.2814C62.6513 14.3151 62.7709 14.3737 62.8757 14.4538C62.9804 14.5339 63.0683 14.6339 63.1342 14.7482C63.2002 14.8624 63.2429 14.9885 63.2599 15.1193C63.2769 15.2501 63.2679 15.3829 63.2333 15.5102C63.1987 15.6375 63.1394 15.7566 63.0586 15.8609C62.9778 15.9651 62.8771 16.0523 62.7625 16.1175L53.2175 21.629C53.0655 21.7169 52.893 21.7632 52.7175 21.763Z" fill="#B39A72"/>
</svg>
