<svg width="64" height="64" viewBox="0 0 64 64" fill="none" xmlns="http://www.w3.org/2000/svg">
<path d="M58.5585 61.5H5.4415C3.99901 61.4978 2.61625 60.9237 1.59626 59.9037C0.576269 58.8837 0.002248 57.501 0 56.0585L0 15.5C0 15.2348 0.105357 14.9804 0.292893 14.7929C0.48043 14.6054 0.734784 14.5 1 14.5H63C63.2652 14.5 63.5196 14.6054 63.7071 14.7929C63.8946 14.9804 64 15.2348 64 15.5V56.0585C63.9978 57.501 63.4237 58.8837 62.4037 59.9037C61.3837 60.9237 60.001 61.4978 58.5585 61.5ZM2 16.5V56.0585C2.00106 56.9709 2.36398 57.8457 3.00916 58.4908C3.65434 59.136 4.52908 59.4989 5.4415 59.5H58.5585C59.4709 59.4989 60.3457 59.136 60.9908 58.4908C61.636 57.8457 61.9989 56.9709 62 56.0585V16.5H2Z" fill="#B39A72"/>
<path d="M63 16.5H1C0.734784 16.5 0.48043 16.3946 0.292893 16.2071C0.105357 16.0196 0 15.7652 0 15.5V7.9415C0.002248 6.49901 0.576269 5.11625 1.59626 4.09626C2.61625 3.07627 3.99901 2.50225 5.4415 2.5H58.5585C60.001 2.50225 61.3837 3.07627 62.4037 4.09626C63.4237 5.11625 63.9978 6.49901 64 7.9415V15.5C64 15.7652 63.8946 16.0196 63.7071 16.2071C63.5196 16.3946 63.2652 16.5 63 16.5ZM2 14.5H62V7.9415C61.9989 7.02908 61.636 6.15434 60.9908 5.50916C60.3457 4.86398 59.4709 4.50106 58.5585 4.5H5.4415C4.52908 4.50106 3.65434 4.86398 3.00916 5.50916C2.36398 6.15434 2.00106 7.02908 2 7.9415V14.5Z" fill="#B39A72"/>
<path d="M7 12.5C6.40666 12.5 5.82664 12.3241 5.33329 11.9944C4.83994 11.6648 4.45543 11.1962 4.22836 10.6481C4.0013 10.0999 3.94189 9.49667 4.05765 8.91473C4.1734 8.33279 4.45912 7.79824 4.87868 7.37868C5.29824 6.95912 5.83279 6.6734 6.41473 6.55765C6.99667 6.44189 7.59987 6.5013 8.14805 6.72836C8.69623 6.95543 9.16477 7.33994 9.49441 7.83329C9.82405 8.32664 10 8.90666 10 9.5C9.99921 10.2954 9.68288 11.058 9.12044 11.6204C8.55801 12.1829 7.79541 12.4992 7 12.5ZM7 8.5C6.80222 8.5 6.60888 8.55865 6.44443 8.66853C6.27998 8.77841 6.15181 8.93459 6.07612 9.11732C6.00043 9.30004 5.98063 9.50111 6.01922 9.69509C6.0578 9.88907 6.15304 10.0673 6.29289 10.2071C6.43275 10.347 6.61093 10.4422 6.80491 10.4808C6.99889 10.5194 7.19996 10.4996 7.38268 10.4239C7.56541 10.3482 7.72159 10.22 7.83147 10.0556C7.94135 9.89112 8 9.69778 8 9.5C8 9.23478 7.89464 8.98043 7.70711 8.79289C7.51957 8.60536 7.26522 8.5 7 8.5Z" fill="#B39A72"/>
<path d="M16 12.5C15.4067 12.5 14.8266 12.3241 14.3333 11.9944C13.8399 11.6648 13.4554 11.1962 13.2284 10.6481C13.0013 10.0999 12.9419 9.49667 13.0576 8.91473C13.1734 8.33279 13.4591 7.79824 13.8787 7.37868C14.2982 6.95912 14.8328 6.6734 15.4147 6.55765C15.9967 6.44189 16.5999 6.5013 17.1481 6.72836C17.6962 6.95543 18.1648 7.33994 18.4944 7.83329C18.8241 8.32664 19 8.90666 19 9.5C18.9992 10.2954 18.6829 11.058 18.1204 11.6204C17.558 12.1829 16.7954 12.4992 16 12.5ZM16 8.5C15.8022 8.5 15.6089 8.55865 15.4444 8.66853C15.28 8.77841 15.1518 8.93459 15.0761 9.11732C15.0004 9.30004 14.9806 9.50111 15.0192 9.69509C15.0578 9.88907 15.153 10.0673 15.2929 10.2071C15.4327 10.347 15.6109 10.4422 15.8049 10.4808C15.9989 10.5194 16.2 10.4996 16.3827 10.4239C16.5654 10.3482 16.7216 10.22 16.8315 10.0556C16.9414 9.89112 17 9.69778 17 9.5C17 9.23478 16.8946 8.98043 16.7071 8.79289C16.5196 8.60536 16.2652 8.5 16 8.5Z" fill="#B39A72"/>
<path d="M39.4045 53.625H24.5955C23.3771 53.6238 22.2089 53.1393 21.3473 52.2777C20.4857 51.4161 20.0012 50.2479 20 49.0295V34.2205C20.0012 33.0021 20.4857 31.8339 21.3473 30.9723C22.2089 30.1107 23.3771 29.6262 24.5955 29.625H39.4045C40.6229 29.6262 41.7911 30.1107 42.6527 30.9723C43.5143 31.8339 43.9988 33.0021 44 34.2205V49.0295C43.9988 50.2479 43.5143 51.4161 42.6527 52.2777C41.7911 53.1393 40.6229 53.6238 39.4045 53.625ZM24.5955 31.625C23.9075 31.6262 23.248 31.9 22.7615 32.3865C22.275 32.873 22.0012 33.5325 22 34.2205V49.0295C22.0012 49.7175 22.275 50.377 22.7615 50.8635C23.248 51.35 23.9075 51.6238 24.5955 51.625H39.4045C40.0925 51.6238 40.752 51.35 41.2385 50.8635C41.725 50.377 41.9988 49.7175 42 49.0295V34.2205C41.9988 33.5325 41.725 32.873 41.2385 32.3865C40.752 31.9 40.0925 31.6262 39.4045 31.625H24.5955Z" fill="#B39A72"/>
<path d="M38.5 31.375C38.2348 31.375 37.9804 31.2696 37.7929 31.0821C37.6054 30.8946 37.5 30.6402 37.5 30.375C37.5 27.0665 35.0325 24.375 32 24.375C28.9675 24.375 26.5 27.0665 26.5 30.375C26.5 30.6402 26.3946 30.8946 26.2071 31.0821C26.0196 31.2696 25.7652 31.375 25.5 31.375C25.2348 31.375 24.9804 31.2696 24.7929 31.0821C24.6054 30.8946 24.5 30.6402 24.5 30.375C24.5 25.964 27.8645 22.375 32 22.375C36.1355 22.375 39.5 25.964 39.5 30.375C39.5 30.6402 39.3946 30.8946 39.2071 31.0821C39.0196 31.2696 38.7652 31.375 38.5 31.375Z" fill="#B39A72"/>
<path d="M34 43.1725C33.7967 43.1729 33.5981 43.1113 33.4307 42.996C33.2633 42.8807 33.135 42.7171 33.0629 42.527C32.9908 42.3369 32.9784 42.1294 33.0273 41.932C33.0762 41.7347 33.184 41.5569 33.3365 41.4225C33.5454 41.2367 33.7126 41.0087 33.8269 40.7536C33.9413 40.4985 34.0003 40.222 34 39.9425C34 39.412 33.7893 38.9033 33.4142 38.5283C33.0391 38.1532 32.5304 37.9425 32 37.9425C31.4696 37.9425 30.9609 38.1532 30.5858 38.5283C30.2107 38.9033 30 39.412 30 39.9425C29.9994 40.2223 30.0583 40.499 30.1725 40.7544C30.2868 41.0097 30.454 41.238 30.663 41.424C30.8575 41.6009 30.9744 41.8473 30.9885 42.1098C31.0027 42.3723 30.9129 42.6299 30.7386 42.8267C30.5642 43.0235 30.3194 43.1437 30.0571 43.1614C29.7948 43.179 29.5361 43.0927 29.337 42.921C28.7322 42.3814 28.3056 41.6708 28.1137 40.8833C27.9218 40.0958 27.9737 39.2686 28.2624 38.5113C28.5512 37.7539 29.0632 37.1022 29.7306 36.6423C30.3981 36.1825 31.1895 35.9363 32 35.9363C32.8105 35.9363 33.6019 36.1825 34.2694 36.6423C34.9368 37.1022 35.4488 37.7539 35.7376 38.5113C36.0263 39.2686 36.0782 40.0958 35.8863 40.8833C35.6944 41.6708 35.2678 42.3814 34.663 42.921C34.4803 43.0832 34.2444 43.1727 34 43.1725Z" fill="#B39A72"/>
<path d="M34 47.3075H30C29.7348 47.3075 29.4804 47.2021 29.2929 47.0146C29.1054 46.8271 29 46.5727 29 46.3075V42.3075C29 42.0423 29.1054 41.7879 29.2929 41.6004C29.4804 41.4129 29.7348 41.3075 30 41.3075C30.2652 41.3075 30.5196 41.4129 30.7071 41.6004C30.8946 41.7879 31 42.0423 31 42.3075V45.3075H33V42.3075C33 42.0423 33.1054 41.7879 33.2929 41.6004C33.4804 41.4129 33.7348 41.3075 34 41.3075C34.2652 41.3075 34.5196 41.4129 34.7071 41.6004C34.8946 41.7879 35 42.0423 35 42.3075V46.3075C35 46.5727 34.8946 46.8271 34.7071 47.0146C34.5196 47.2021 34.2652 47.3075 34 47.3075Z" fill="#B39A72"/>
</svg>
