<svg width="64" height="64" viewBox="0 0 64 64" fill="none" xmlns="http://www.w3.org/2000/svg">
<g clip-path="url(#clip0_21_80)">
<path d="M32 64.0001C31.892 64.0001 31.7835 64.0001 31.676 63.9936C25.649 63.7361 20.514 56.1061 18.2865 44.0821C17.5662 40.0953 17.2092 36.0514 17.22 32.0001C17.2092 27.9491 17.5661 23.9055 18.2865 19.9191C20.514 7.89406 25.65 0.264061 31.6875 0.00606122C31.8995 -0.00543838 32.112 -0.00543838 32.324 0.00606122C38.35 0.264061 43.486 7.89406 45.7135 19.9181C46.4338 23.9048 46.7908 27.9488 46.78 32.0001C46.7821 34.5735 46.6397 37.1451 46.3535 39.7026C46.3237 39.9661 46.1903 40.207 45.9829 40.3723C45.7754 40.5376 45.5108 40.6137 45.2472 40.5838C44.9837 40.554 44.7428 40.4207 44.5775 40.2132C44.4122 40.0057 44.3362 39.7411 44.366 39.4776C44.644 36.9948 44.7823 34.4984 44.78 32.0001C44.7908 28.0707 44.4449 24.1484 43.7465 20.2816C41.7605 9.55906 37.1315 2.21356 32.2275 2.00406C32.1435 2.00006 32.069 2.00006 32 2.00006C31.931 2.00006 31.857 2.00006 31.784 2.00356C26.8685 2.21356 22.2395 9.55906 20.2535 20.2821C19.5551 24.1487 19.2092 28.0708 19.22 32.0001C19.2092 35.9296 19.5551 39.852 20.2535 43.7191C22.2395 54.4411 26.8685 61.7866 31.7725 61.9961C31.856 62.0006 31.9295 62.0001 32 62.0001C34.825 62.0001 37.0655 59.7001 38.447 57.7726C38.5235 57.6658 38.6203 57.5751 38.7318 57.5058C38.8433 57.4364 38.9674 57.3897 39.097 57.3683C39.2266 57.3469 39.3591 57.3512 39.487 57.381C39.6149 57.4109 39.7357 57.4656 39.8425 57.5421C39.9493 57.6186 40.0399 57.7153 40.1093 57.8269C40.1786 57.9384 40.2254 58.0625 40.2468 58.1921C40.2682 58.3217 40.2638 58.4542 40.234 58.5821C40.2042 58.71 40.1495 58.8308 40.073 58.9376C37.7 62.2501 34.9085 64.0001 32 64.0001Z" fill="#B39A72"/>
<path d="M32 64C31.892 64 31.7835 64 31.676 63.9935C23.2395 63.9132 15.1761 60.5039 9.24096 54.5077C3.30577 48.5114 -0.0208379 40.4136 -0.0148387 31.9767C-0.00883952 23.5398 3.32928 15.4468 9.27299 9.45897C15.2167 3.47118 23.2849 0.0733553 31.7215 0.00501903C31.9214 -0.0054165 32.1216 -0.0054165 32.3215 0.00501903C40.746 0.107978 48.7915 3.52188 54.7193 9.50886C60.647 15.4958 63.9808 23.575 64 32C64.0134 37.0261 62.8309 41.9833 60.55 46.462C60.4292 46.697 60.2204 46.8747 59.969 46.9562C59.7176 47.0377 59.4443 47.0164 59.2085 46.897C58.9728 46.7775 58.794 46.5697 58.7111 46.3188C58.6282 46.0679 58.6479 45.7944 58.766 45.558C60.9041 41.3592 62.0126 36.7119 62 32C61.9792 24.0955 58.8475 16.517 53.2822 10.9037C47.7169 5.29042 40.1655 2.09369 32.2615 2.00502C32.144 2.00002 32.073 2.00002 32 2.00002C31.927 2.00002 31.857 2.00002 31.784 2.00352C23.8651 2.05319 16.2872 5.23224 10.703 10.8473C5.11888 16.4623 1.98166 24.0576 1.97565 31.9767C1.96965 39.8957 5.09534 47.4958 10.671 53.1193C16.2466 58.7428 23.8197 61.9333 31.7385 61.995C31.856 62.0005 31.927 62 32 62C36.7115 62.0132 41.3586 60.9054 45.5575 58.768C45.7941 58.6481 46.0686 58.627 46.3207 58.7095C46.5728 58.792 46.7818 58.9712 46.9017 59.2078C47.0217 59.4443 47.0427 59.7189 46.9603 59.971C46.8778 60.2231 46.6986 60.4321 46.462 60.552C41.983 62.8321 37.0259 64.014 32 64Z" fill="#B39A72"/>
<path d="M63 33H1C0.734784 33 0.48043 32.8946 0.292893 32.7071C0.105357 32.5196 0 32.2652 0 32C0 31.7348 0.105357 31.4804 0.292893 31.2929C0.48043 31.1054 0.734784 31 1 31H63C63.2652 31 63.5196 31.1054 63.7071 31.2929C63.8946 31.4804 64 31.7348 64 32C64 32.2652 63.8946 32.5196 63.7071 32.7071C63.5196 32.8946 63.2652 33 63 33Z" fill="#B39A72"/>
<path d="M32 21.978C25.425 21.978 19.2845 21.356 14.7105 20.228C9.0635 18.832 6.2 16.767 6.2 14.089C6.2 13.9577 6.22586 13.8276 6.27612 13.7063C6.32637 13.585 6.40003 13.4747 6.49289 13.3819C6.58575 13.289 6.69599 13.2154 6.81731 13.1651C6.93864 13.1149 7.06868 13.089 7.2 13.089C7.33132 13.089 7.46136 13.1149 7.58268 13.1651C7.70401 13.2154 7.81425 13.289 7.9071 13.3819C7.99996 13.4747 8.07362 13.585 8.12388 13.7063C8.17413 13.8276 8.2 13.9577 8.2 14.089C8.2 17.389 18.6545 19.978 32 19.978C45.3455 19.978 55.8 17.391 55.8 14.089C55.8 13.8238 55.9053 13.5694 56.0929 13.3819C56.2804 13.1943 56.5348 13.089 56.8 13.089C57.0652 13.089 57.3196 13.1943 57.5071 13.3819C57.6946 13.5694 57.8 13.8238 57.8 14.089C57.8 19.912 43.9 21.978 32 21.978Z" fill="#B39A72"/>
<path d="M54.225 47.635C54.0934 47.6353 53.9629 47.6097 53.8412 47.5597C53.7194 47.5096 53.6087 47.436 53.5154 47.3432C53.3269 47.1556 53.2207 46.9009 53.22 46.635C53.2193 46.3691 53.3243 46.1139 53.5119 45.9254C53.6994 45.7369 53.9541 45.6307 54.22 45.63C54.4859 45.6293 54.7411 45.7343 54.9296 45.9219C55.1181 46.1094 55.2243 46.3641 55.225 46.63C55.2257 46.8959 55.1207 47.1511 54.9331 47.3396C54.7456 47.5281 54.4909 47.6343 54.225 47.635Z" fill="#B39A72"/>
<path d="M7.2 50.91C6.93478 50.91 6.68043 50.8047 6.49289 50.6171C6.30535 50.4296 6.2 50.1753 6.2 49.91C6.2 45.7465 13.226 43.806 19.12 42.91C23.3857 42.2983 27.6907 42.0008 32 42.02C34.528 42.02 37.0415 42.115 39.472 42.303C39.6037 42.3122 39.7322 42.3473 39.8503 42.4063C39.9683 42.4654 40.0735 42.5472 40.1597 42.6471C40.246 42.747 40.3116 42.863 40.3528 42.9884C40.3941 43.1138 40.41 43.2461 40.3999 43.3776C40.3897 43.5092 40.3536 43.6375 40.2936 43.7551C40.2336 43.8727 40.151 43.9772 40.0504 44.0627C39.9498 44.1481 39.8333 44.2128 39.7076 44.2531C39.5819 44.2933 39.4495 44.3082 39.318 44.297C36.9385 44.1135 34.4765 44.02 32 44.02C27.7909 44.0012 23.5861 44.2915 19.4195 44.8885C11.15 46.1445 8.2 48.306 8.2 49.91C8.2 50.1753 8.09464 50.4296 7.9071 50.6171C7.71957 50.8047 7.46521 50.91 7.2 50.91Z" fill="#B39A72"/>
<path d="M32 64C31.7348 64 31.4804 63.8946 31.2929 63.7071C31.1054 63.5196 31 63.2652 31 63V1C31 0.734784 31.1054 0.48043 31.2929 0.292893C31.4804 0.105357 31.7348 0 32 0C32.2652 0 32.5196 0.105357 32.7071 0.292893C32.8946 0.48043 33 0.734784 33 1V63C33 63.2652 32.8946 63.5196 32.7071 63.7071C32.5196 63.8946 32.2652 64 32 64Z" fill="#B39A72"/>
<path d="M51.1145 64H47.8855C47.3165 63.9991 46.7711 63.7726 46.3687 63.3703C45.9664 62.9679 45.7399 62.4225 45.739 61.8535V60.723C45.738 60.6912 45.7269 60.6605 45.7073 60.6355C45.6877 60.6104 45.6606 60.5922 45.63 60.5835C45.2111 60.4368 44.801 60.2663 44.4015 60.073C44.3734 60.0579 44.3413 60.0519 44.3096 60.0557C44.2779 60.0596 44.2482 60.0731 44.2245 60.0945L43.4245 60.8945C43.0215 61.2963 42.4756 61.5219 41.9065 61.5219C41.3374 61.5219 40.7915 61.2963 40.3885 60.8945L38.1055 58.6105C37.9059 58.4113 37.7476 58.1747 37.6396 57.9142C37.5316 57.6537 37.476 57.3745 37.476 57.0925C37.476 56.8105 37.5316 56.5313 37.6396 56.2708C37.7476 56.0103 37.9059 55.7737 38.1055 55.5745L38.9055 54.7745C38.9269 54.7507 38.9404 54.7209 38.9442 54.6891C38.9479 54.6573 38.9418 54.6251 38.9265 54.597C38.7334 54.1976 38.5631 53.7876 38.4165 53.369C38.4077 53.3385 38.3895 53.3115 38.3644 53.292C38.3394 53.2725 38.3087 53.2615 38.277 53.2605H37.1465C36.5776 53.2596 36.0322 53.0332 35.6299 52.631C35.2276 52.2287 35.0011 51.6834 35 51.1145V47.8855C35.0008 47.3164 35.2272 46.7708 35.6295 46.3684C36.0319 45.9659 36.5774 45.7394 37.1465 45.7385H38.277C38.3089 45.7376 38.3397 45.7265 38.3648 45.7069C38.39 45.6873 38.4083 45.6602 38.417 45.6295C38.5633 45.2111 38.7334 44.8014 38.9265 44.4025C38.9417 44.3743 38.9479 44.342 38.9441 44.3102C38.9404 44.2783 38.9269 44.2484 38.9055 44.2245L38.1055 43.4245C37.9059 43.2253 37.7475 42.9887 37.6395 42.7282C37.5314 42.4677 37.4758 42.1885 37.4758 41.9065C37.4758 41.6245 37.5314 41.3453 37.6395 41.0848C37.7475 40.8243 37.9059 40.5877 38.1055 40.3885L40.388 38.105C40.791 37.7032 41.3369 37.4776 41.906 37.4776C42.4751 37.4776 43.021 37.7032 43.424 38.105L44.224 38.905C44.2477 38.9268 44.2776 38.9406 44.3095 38.9444C44.3415 38.9483 44.3738 38.942 44.402 38.9265C44.8012 38.7334 45.211 38.5631 45.6295 38.4165C45.6601 38.4078 45.6872 38.3896 45.7068 38.3645C45.7264 38.3395 45.7375 38.3088 45.7385 38.277V37.1465C45.7394 36.5774 45.9659 36.0319 46.3684 35.6295C46.7708 35.2272 47.3164 35.0008 47.8855 35H51.1145C51.6835 35.0009 52.2289 35.2274 52.6313 35.6297C53.0336 36.0321 53.2601 36.5775 53.261 37.1465V38.277C53.262 38.3088 53.2731 38.3395 53.2927 38.3645C53.3123 38.3896 53.3394 38.4078 53.37 38.4165C53.7887 38.5631 54.1987 38.7336 54.598 38.927C54.6262 38.942 54.6584 38.9479 54.6901 38.9441C54.7219 38.9402 54.7516 38.9268 54.7755 38.9055L55.5755 38.1055C55.9785 37.7037 56.5244 37.4781 57.0935 37.4781C57.6626 37.4781 58.2085 37.7037 58.6115 38.1055L60.8945 40.3895C61.0941 40.5887 61.2524 40.8253 61.3604 41.0858C61.4684 41.3463 61.524 41.6255 61.524 41.9075C61.524 42.1895 61.4684 42.4687 61.3604 42.7292C61.2524 42.9897 61.0941 43.2263 60.8945 43.4255L60.0945 44.2255C60.0731 44.2493 60.0596 44.2791 60.0558 44.3109C60.0521 44.3427 60.0582 44.3749 60.0735 44.403C60.2666 44.8024 60.4369 45.2124 60.5835 45.631C60.5923 45.6615 60.6105 45.6885 60.6356 45.708C60.6606 45.7275 60.6913 45.7385 60.723 45.7395H61.8535C62.4224 45.7404 62.9678 45.9668 63.3701 46.369C63.7724 46.7713 63.9989 47.3166 64 47.8855V51.1145C63.9992 51.6836 63.7728 52.2292 63.3705 52.6316C62.9681 53.0341 62.4226 53.2606 61.8535 53.2615H60.723C60.6911 53.2624 60.6603 53.2735 60.6352 53.2931C60.61 53.3127 60.5917 53.3398 60.583 53.3705C60.4367 53.7889 60.2666 54.1986 60.0735 54.5975C60.0583 54.6257 60.0521 54.658 60.0559 54.6898C60.0596 54.7217 60.0731 54.7516 60.0945 54.7755L60.8945 55.5755C61.0941 55.7747 61.2525 56.0113 61.3605 56.2718C61.4686 56.5323 61.5242 56.8115 61.5242 57.0935C61.5242 57.3755 61.4686 57.6547 61.3605 57.9152C61.2525 58.1757 61.0941 58.4123 60.8945 58.6115L58.612 60.895C58.209 61.2968 57.6631 61.5224 57.094 61.5224C56.5249 61.5224 55.979 61.2968 55.576 60.895L54.776 60.095C54.7524 60.0734 54.7227 60.0597 54.691 60.0558C54.6593 60.0518 54.6271 60.0578 54.599 60.073C54.1995 60.2663 53.7894 60.4368 53.3705 60.5835C53.3399 60.5922 53.3128 60.6104 53.2932 60.6355C53.2736 60.6605 53.2625 60.6912 53.2615 60.723V61.8535C53.2606 62.4226 53.0341 62.9681 52.6316 63.3705C52.2292 63.7728 51.6836 63.9992 51.1145 64ZM44.326 58.0555C44.6539 58.0555 44.9775 58.1298 45.2725 58.273C45.6035 58.4328 45.9432 58.5739 46.29 58.6955C46.7119 58.8416 47.078 59.1152 47.3378 59.4784C47.5975 59.8416 47.7381 60.2765 47.74 60.723V61.8535C47.74 61.8924 47.7554 61.9296 47.7829 61.9571C47.8104 61.9846 47.8476 62 47.8865 62H51.1155C51.1544 62 51.1916 61.9846 51.2191 61.9571C51.2466 61.9296 51.262 61.8924 51.262 61.8535V60.723C51.2639 60.2765 51.4045 59.8416 51.6642 59.4784C51.924 59.1152 52.2901 58.8416 52.712 58.6955C53.0588 58.5739 53.3985 58.4328 53.7295 58.273C54.1314 58.0768 54.5844 58.0106 55.0256 58.0837C55.4668 58.1567 55.8743 58.3653 56.1915 58.6805L56.9915 59.4805C57.0051 59.4942 57.0213 59.5051 57.0392 59.5126C57.057 59.52 57.0762 59.5238 57.0955 59.5238C57.1148 59.5238 57.134 59.52 57.1518 59.5126C57.1697 59.5051 57.1859 59.4942 57.1995 59.4805L59.4825 57.197C59.4963 57.1835 59.5072 57.1673 59.5147 57.1495C59.5221 57.1317 59.526 57.1126 59.526 57.0932C59.526 57.0739 59.5221 57.0548 59.5147 57.037C59.5072 57.0192 59.4963 57.003 59.4825 56.9895L58.6825 56.1895C58.3676 55.8721 58.1592 55.4646 58.0862 55.0235C58.0132 54.5824 58.0792 54.1295 58.275 53.7275C58.435 53.3968 58.5759 53.0573 58.697 52.7105C58.8432 52.2885 59.1169 51.9224 59.4802 51.6627C59.8434 51.4029 60.2784 51.2624 60.725 51.2605H61.8555C61.8944 51.2604 61.9317 51.2448 61.9591 51.2173C61.9866 51.1897 62.002 51.1524 62.002 51.1135V47.8855C62.002 47.8466 61.9866 47.8093 61.9591 47.7817C61.9317 47.7542 61.8944 47.7386 61.8555 47.7385H60.725C60.2784 47.7368 59.8434 47.5963 59.4802 47.3366C59.117 47.0768 58.8434 46.7105 58.6975 46.2885C58.5759 45.9413 58.4348 45.6013 58.275 45.27C58.0792 44.8682 58.0132 44.4155 58.0862 43.9745C58.1593 43.5336 58.3676 43.1262 58.6825 42.809L59.4825 42.009C59.4962 41.9955 59.5071 41.9793 59.5145 41.9616C59.5219 41.9438 59.5257 41.9248 59.5257 41.9055C59.5257 41.8862 59.5219 41.8672 59.5145 41.8494C59.5071 41.8316 59.4962 41.8155 59.4825 41.802L57.2 39.5195C57.1721 39.4926 57.1348 39.4776 57.096 39.4776C57.0572 39.4776 57.0199 39.4926 56.992 39.5195L56.192 40.3195C55.8745 40.6342 55.467 40.8425 55.026 40.9156C54.5849 40.9887 54.1321 40.923 53.73 40.7275C53.3992 40.5673 53.0594 40.426 52.7125 40.3045C52.2906 40.1584 51.9244 39.8848 51.6647 39.5216C51.405 39.1584 51.2644 38.7235 51.2625 38.277V37.1465C51.2625 37.1076 51.2471 37.0704 51.2196 37.0429C51.1921 37.0154 51.1549 37 51.116 37H47.8855C47.8466 37 47.8094 37.0154 47.7819 37.0429C47.7544 37.0704 47.739 37.1076 47.739 37.1465V38.277C47.7371 38.7235 47.5965 39.1584 47.3368 39.5216C47.077 39.8848 46.7109 40.1584 46.289 40.3045C45.9423 40.426 45.6027 40.567 45.272 40.727C44.87 40.9229 44.417 40.9888 43.9758 40.9158C43.5346 40.8428 43.127 40.6344 42.8095 40.3195L42.0095 39.5195C41.9816 39.4926 41.9443 39.4776 41.9055 39.4776C41.8667 39.4776 41.8294 39.4926 41.8015 39.5195L39.5185 41.803C39.5047 41.8165 39.4938 41.8327 39.4863 41.8505C39.4789 41.8683 39.475 41.8874 39.475 41.9067C39.475 41.9261 39.4789 41.9452 39.4863 41.963C39.4938 41.9808 39.5047 41.997 39.5185 42.0105L40.3185 42.8105C40.6334 43.1279 40.8418 43.5354 40.9148 43.9765C40.9878 44.4176 40.9218 44.8705 40.726 45.2725C40.566 45.6032 40.4251 45.9427 40.304 46.2895C40.1579 46.7115 39.8843 47.0778 39.521 47.3375C39.1577 47.5973 38.7226 47.7378 38.276 47.7395H37.1465C37.1076 47.7396 37.0703 47.7552 37.0429 47.7827C37.0154 47.8103 37 47.8476 37 47.8865V51.1155C37 51.1544 37.0154 51.1917 37.0429 51.2193C37.0703 51.2468 37.1076 51.2624 37.1465 51.2625H38.277C38.7235 51.2643 39.1585 51.4049 39.5217 51.6646C39.8849 51.9244 40.1584 52.2905 40.3045 52.7125C40.4261 53.0597 40.5672 53.3997 40.727 53.731C40.9228 54.1328 40.9888 54.5855 40.9158 55.0265C40.8427 55.4674 40.6344 55.8748 40.3195 56.192L39.5195 56.992C39.5058 57.0055 39.4949 57.0217 39.4875 57.0394C39.4801 57.0572 39.4763 57.0762 39.4763 57.0955C39.4763 57.1148 39.4801 57.1338 39.4875 57.1516C39.4949 57.1693 39.5058 57.1855 39.5195 57.199L41.803 59.483C41.8167 59.4967 41.8329 59.5075 41.8507 59.5149C41.8686 59.5223 41.8877 59.5261 41.907 59.5261C41.9263 59.5261 41.9454 59.5223 41.9633 59.5149C41.9811 59.5075 41.9973 59.4967 42.011 59.483L42.811 58.683C43.0099 58.4839 43.246 58.3261 43.506 58.2184C43.766 58.1107 44.0446 58.0554 44.326 58.0555Z" fill="#B39A72"/>
<path d="M49.5 56.0225C48.21 56.0224 46.949 55.6398 45.8764 54.9231C44.8039 54.2063 43.9679 53.1876 43.4744 51.9957C42.9808 50.8039 42.8517 49.4925 43.1034 48.2273C43.3551 46.9621 43.9764 45.7999 44.8886 44.8878C45.8008 43.9756 46.963 43.3545 48.2282 43.1028C49.4934 42.8512 50.8049 42.9804 51.9967 43.4741C53.1885 43.9678 54.2071 44.8038 54.9238 45.8764C55.6405 46.949 56.023 48.21 56.023 49.5C56.0209 51.2294 55.3329 52.8872 54.1101 54.11C52.8872 55.3327 51.2293 56.0206 49.5 56.0225ZM49.5 44.9775C48.6056 44.9776 47.7312 45.243 46.9876 45.74C46.2439 46.237 45.6643 46.9433 45.3221 47.7697C44.9799 48.5961 44.8904 49.5054 45.065 50.3826C45.2395 51.2599 45.6703 52.0657 46.3028 52.6981C46.9353 53.3305 47.7411 53.7612 48.6184 53.9357C49.4957 54.1101 50.4049 54.0205 51.2313 53.6782C52.0576 53.3359 52.7639 52.7563 53.2609 52.0126C53.7578 51.2688 54.023 50.3945 54.023 49.5C54.0217 48.3009 53.5447 47.1513 52.6967 46.3034C51.8488 45.4556 50.6991 44.9787 49.5 44.9775Z" fill="#B39A72"/>
</g>
<defs>
<clipPath id="clip0_21_80">
<rect width="64" height="64" fill="white"/>
</clipPath>
</defs>
</svg>
